<svg width="53" height="51" viewBox="0 0 53 51" fill="none" xmlns="http://www.w3.org/2000/svg">
<path fill-rule="evenodd" clip-rule="evenodd" d="M48.1733 29.6564C48.0306 30.3233 47.8675 30.9903 47.6637 31.6181L51.2109 34.698C50.4362 36.6401 49.4169 38.4448 48.2141 40.1123L43.5864 38.9941C42.9748 39.7003 42.3292 40.3673 41.6497 40.9951L43.1175 45.3697C41.4662 46.6448 39.6518 47.7237 37.7151 48.6065L34.2902 45.4089C33.4068 45.7359 32.503 46.004 31.5788 46.2132L30.5595 50.7055C28.5004 51.0194 26.3599 51.0783 24.2193 50.9017L22.8942 46.4879C22.6495 46.4486 22.4049 46.4094 22.1806 46.3702C21.4875 46.2263 20.808 46.0628 20.142 45.8797L16.9209 49.2735C14.9231 48.528 13.0271 47.5668 11.3147 46.4094L12.4767 41.9367C11.7428 41.3612 11.0497 40.74 10.3973 40.073L5.85113 41.4855C4.52601 39.8965 3.38437 38.1506 2.48737 36.3066L5.81035 32.9913C5.47058 32.1412 5.19196 31.2715 4.97451 30.3822L0.30602 29.421C-0.0201629 27.42 -0.0813221 25.3798 0.102156 23.3004L4.6891 22.0253C4.72987 21.8095 4.77065 21.5741 4.81142 21.3387C4.96092 20.6717 5.13081 20.0178 5.32108 19.377L1.79423 16.2971C2.56892 14.355 3.56784 12.5502 4.77064 10.9024L9.39836 12.001C10.01 11.2947 10.6623 10.6343 11.3555 10.0196L9.88763 5.64502C11.5389 4.35029 13.3533 3.27134 15.2696 2.40819L18.715 5.58616C19.5984 5.27229 20.5022 5.01073 21.4263 4.80148L22.4253 0.289539C24.5047 -0.00471728 26.6249 -0.0831857 28.7858 0.0933683L30.111 4.52684C30.3352 4.56607 30.5798 4.58569 30.8245 4.64454C31.5176 4.77532 32.1972 4.9388 32.8631 5.13497L36.0638 1.72159C38.082 2.46704 39.9576 3.4479 41.6701 4.60531L40.5284 9.05839C41.2623 9.63383 41.9487 10.255 42.5874 10.922L47.1336 9.50958C48.4587 11.0986 49.6004 12.8445 50.4974 14.7081L47.1744 18.0038C47.5142 18.8539 47.7928 19.7236 48.0102 20.6129L52.6991 21.5937C53.0049 23.5751 53.0864 25.6349 52.903 27.6947L48.2956 28.9698C48.2549 29.2052 48.2141 29.421 48.1733 29.6564ZM30.009 8.56796C20.2847 6.70434 10.8458 12.7856 8.90909 22.1234C6.97238 31.4808 13.2718 40.5635 22.9961 42.4271C32.7 44.2907 42.1389 38.229 44.0756 28.8717C46.0124 19.5339 39.713 10.4316 30.009 8.56796Z" fill="#323232"/>
<path d="M42.3461 25.5C42.3461 33.7795 35.3431 40.6538 26.5 40.6538C17.6569 40.6538 10.6538 33.7795 10.6538 25.5C10.6538 17.2205 17.6569 10.3462 26.5 10.3462C35.3431 10.3462 42.3461 17.2205 42.3461 25.5Z" stroke="#323232" stroke-width="5"/>
</svg>
