<svg width="184" height="51" viewBox="0 0 184 51" fill="none" xmlns="http://www.w3.org/2000/svg">
<path fill-rule="evenodd" clip-rule="evenodd" d="M178.833 29.6564C178.691 30.3233 178.528 30.9903 178.324 31.6181L181.871 34.698C181.096 36.6401 180.077 38.4448 178.874 40.1123L174.246 38.9941C173.635 39.7003 172.989 40.3673 172.31 40.9951L173.778 45.3697C172.126 46.6448 170.312 47.7237 168.375 48.6065L164.95 45.4089C164.067 45.7359 163.163 46.004 162.239 46.2132L161.219 50.7055C159.16 51.0194 157.02 51.0783 154.879 50.9017L153.554 46.4879L153.553 46.4876C153.309 46.4485 153.064 46.4093 152.841 46.3702C152.148 46.2263 151.468 46.0628 150.802 45.8797L147.581 49.2735C145.583 48.528 143.687 47.5668 141.975 46.4094L143.137 41.9367C142.403 41.3612 141.71 40.74 141.057 40.073L136.511 41.4855C135.186 39.8965 134.044 38.1506 133.147 36.3066L136.47 32.9913C136.131 32.1412 135.852 31.2715 135.635 30.3822L130.966 29.421C130.64 27.42 130.579 25.3798 130.762 23.3004L135.349 22.0253C135.39 21.8095 135.431 21.5741 135.471 21.3387C135.621 20.6717 135.791 20.0178 135.981 19.377L132.454 16.2971C133.229 14.355 134.228 12.5502 135.431 10.9024L140.058 12.001C140.67 11.2947 141.322 10.6343 142.015 10.0196L140.548 5.64501C142.199 4.35028 144.013 3.27134 145.93 2.40819L149.375 5.58616C150.258 5.27229 151.162 5.01072 152.086 4.80147L153.085 0.289538C155.165 -0.00471917 157.285 -0.0831876 159.446 0.0933664L160.771 4.52684C160.853 4.54111 160.937 4.55279 161.023 4.56471C161.173 4.58554 161.329 4.6071 161.485 4.64454C162.178 4.77532 162.857 4.9388 163.523 5.13497L166.724 1.72159C168.742 2.46704 170.618 3.44789 172.33 4.6053L171.188 9.05839C171.922 9.63383 172.609 10.255 173.247 10.922L177.794 9.50958C179.119 11.0986 180.26 12.8445 181.157 14.7081L177.834 18.0038C178.174 18.8539 178.453 19.7236 178.67 20.6129L183.359 21.5937C183.665 23.5751 183.746 25.6349 183.563 27.6947L178.956 28.9698C178.935 29.0872 178.915 29.1998 178.895 29.3123C178.874 29.4254 178.854 29.5384 178.833 29.6564ZM3.43695e-05 1.99999V51H18.62C27.2534 51 34.0667 48.7133 39.06 44.14C44.0534 39.52 46.55 33.5933 46.55 26.36C46.55 19.08 44.0767 13.2 39.13 8.72C34.23 4.24 27.4867 1.99999 18.9 1.99999H3.43695e-05ZM19.11 38.96H13.58V13.9H19.11C23.2167 13.9 26.4834 15.02 28.91 17.26C31.3834 19.5 32.62 22.5567 32.62 26.43C32.62 30.3967 31.3834 33.4767 28.91 35.67C26.4834 37.8633 23.2167 38.96 19.11 38.96ZM53.8054 1.99999V51H67.4554V1.99999H53.8054ZM76.4258 51V1.99999H89.0958L109.256 27.9V1.99999H122.696V51H110.796L89.8658 24.12V51H76.4258ZM170.506 25.5C170.506 32.309 164.714 38.1538 157.16 38.1538C149.606 38.1538 143.814 32.309 143.814 25.5C143.814 18.691 149.606 12.8462 157.16 12.8462C164.714 12.8462 170.506 18.691 170.506 25.5Z" fill="#323232"/>
</svg>
