<svg width="20" height="20" viewBox="0 0 20 20" fill="none" xmlns="http://www.w3.org/2000/svg">
<path d="M7.65745 9.29048C7.46915 9.10218 7.21375 8.99639 6.94745 8.99639C6.68115 8.99639 6.42575 9.10218 6.23745 9.29048C6.04915 9.47878 5.94336 9.73418 5.94336 10.0005C5.94336 10.2668 6.04915 10.5222 6.23745 10.7105L9.23745 13.7105C9.33089 13.8032 9.44171 13.8765 9.56354 13.9263C9.68538 13.976 9.81584 14.0012 9.94745 14.0005C10.0844 13.9961 10.2189 13.9637 10.3428 13.9052C10.4666 13.8467 10.5771 13.7634 10.6675 13.6605L17.6674 5.66048C17.8291 5.45981 17.907 5.20449 17.885 4.94776C17.863 4.69104 17.7427 4.45271 17.5493 4.28249C17.3558 4.11227 17.1042 4.02328 16.8467 4.03408C16.5893 4.04489 16.3459 4.15465 16.1674 4.34048L9.94745 11.5405L7.65745 9.29048Z" fill="#FFCB12"/>
<path d="M18.9481 9C18.6828 9 18.4285 9.10536 18.2409 9.29289C18.0534 9.48043 17.9481 9.73478 17.9481 10C17.9481 12.1217 17.1052 14.1566 15.6049 15.6569C14.1046 17.1571 12.0698 18 9.94806 18C8.36814 17.9993 6.82382 17.5308 5.50982 16.6535C4.19582 15.7763 3.17098 14.5297 2.56454 13.0708C1.95809 11.6119 1.7972 10.0061 2.10214 8.45589C2.40709 6.90569 3.16422 5.48048 4.27806 4.36C5.01876 3.60938 5.90173 3.01404 6.87531 2.60881C7.84889 2.20358 8.89352 1.99661 9.94806 2C10.5875 2.004 11.2246 2.07777 11.8481 2.22C11.9785 2.26035 12.1159 2.27356 12.2516 2.2588C12.3874 2.24404 12.5187 2.20163 12.6375 2.13418C12.7562 2.06673 12.8599 1.97567 12.9421 1.86662C13.0243 1.75757 13.0833 1.63284 13.1154 1.50011C13.1476 1.36739 13.1522 1.22948 13.129 1.0949C13.1059 0.960317 13.0554 0.831909 12.9806 0.717592C12.9059 0.603274 12.8086 0.505471 12.6946 0.430211C12.5807 0.354952 12.4525 0.303831 12.3181 0.28C11.5412 0.0972427 10.7461 0.00330743 9.94806 0C7.97239 0.0102635 6.04404 0.605521 4.40635 1.71065C2.76866 2.81578 1.49503 4.38126 0.746174 6.20953C-0.0026775 8.0378 -0.193186 10.0469 0.19869 11.9834C0.590566 13.9198 1.54727 15.6968 2.94806 17.09C4.80475 18.9475 7.32171 19.9939 9.94806 20C12.6002 20 15.1438 18.9464 17.0191 17.0711C18.8945 15.1957 19.9481 12.6522 19.9481 10C19.9481 9.73478 19.8427 9.48043 19.6552 9.29289C19.4676 9.10536 19.2133 9 18.9481 9Z" fill="white"/>
</svg>
