<svg width="26" height="26" viewBox="0 0 26 26" fill="none" xmlns="http://www.w3.org/2000/svg">
<path d="M13 0C5.83192 0 0 5.83192 0 13C0 20.1681 5.83192 26 13 26C14.1775 26 15.3439 25.8429 16.5785 25.4922C19.0795 24.3861 20.4442 21.6566 19.8396 18.9938L19.865 18.9684C20.2459 18.5891 20.4173 17.8575 20.2474 17.3465L20.1744 17.1244C20.003 16.6134 19.4381 16.0802 18.9176 15.9373L16.9959 15.4121C16.4754 15.2709 15.7327 15.4613 15.3503 15.8438L14.6552 16.5388C12.1288 15.8549 10.1468 13.8728 9.46441 11.3465L10.1595 10.6514C10.5404 10.2705 10.7308 9.52783 10.5896 9.00575L10.0658 7.08398C9.92459 6.56348 9.38818 5.99854 8.87722 5.82715L8.6582 5.75412C8.14562 5.58274 7.41406 5.7557 7.0332 6.13818L5.99219 7.1792C5.80653 7.36328 5.6875 7.89171 5.6875 7.89334C5.65256 11.1973 6.94754 14.3791 9.28347 16.7166C11.6131 19.0462 14.7837 20.3396 18.0765 20.3109C18.0845 20.3109 18.2051 20.284 18.3479 20.2411C18.3575 21.8391 17.4514 23.3324 16.0342 23.9656C15.0519 24.2369 14.0315 24.375 13 24.375C6.72852 24.375 1.625 19.2715 1.625 13C1.625 6.72852 6.72852 1.625 13 1.625C19.2715 1.625 24.375 6.72852 24.375 13C24.375 14.8694 23.9307 16.6578 23.0531 18.313C22.8436 18.7097 22.996 19.2017 23.3911 19.4111C23.7894 19.6238 24.2798 19.4698 24.4893 19.0747C25.4779 17.2085 26 15.1074 26 13C26 5.83192 20.1681 0 13 0Z" fill="white"/>
</svg>
