<svg width="42" height="42" viewBox="0 0 42 42" fill="none" xmlns="http://www.w3.org/2000/svg">
<path d="M16.5065 0.305788C16.7402 0.385277 16.9685 0.479821 17.1898 0.588818L19.8536 1.90025C20.5764 2.25616 21.4236 2.25616 22.1465 1.90025L24.8102 0.588818C27.6395 -0.804238 31.0627 0.360193 32.4556 3.18962L32.6082 3.5267L32.7386 3.87294L33.6949 6.68372C33.9544 7.44657 34.5535 8.04565 35.3162 8.30515L38.127 9.26131C41.1128 10.277 42.7099 13.5208 41.6942 16.5065C41.6147 16.7402 41.5202 16.9685 41.4112 17.1898L40.0997 19.8536C39.7438 20.5764 39.7438 21.4236 40.0997 22.1465L41.4112 24.8102C42.8043 27.6395 41.6398 31.0627 38.8104 32.4556C38.589 32.5646 38.3608 32.6593 38.127 32.7386L35.3162 33.6949C34.5535 33.9544 33.9544 34.5535 33.6949 35.3162L32.7386 38.127C31.723 41.1128 28.4792 42.7099 25.4934 41.6942C25.2598 41.6147 25.0316 41.5202 24.8102 41.4112L22.1465 40.0997C21.4236 39.7438 20.5764 39.7438 19.8536 40.0997L17.1898 41.4112C14.3604 42.8043 10.9374 41.6398 9.54434 38.8104C9.43532 38.589 9.34078 38.3608 9.26131 38.127L8.30515 35.3162C8.04565 34.5535 7.44657 33.9544 6.68372 33.6949L3.87294 32.7386C0.887173 31.723 -0.709881 28.4792 0.305788 25.4934C0.385277 25.2598 0.479821 25.0316 0.588818 24.8102L1.90025 22.1465C2.25616 21.4236 2.25616 20.5764 1.90025 19.8536L0.588818 17.1898C-0.804238 14.3604 0.360193 10.9374 3.18962 9.54434C3.41104 9.43532 3.63929 9.34078 3.87294 9.26131L6.68372 8.30515C7.44657 8.04565 8.04565 7.44657 8.30515 6.68372L9.26131 3.87294C10.277 0.887173 13.5208 -0.709881 16.5065 0.305788ZM12.2101 4.87605L11.254 7.68683C10.6831 9.36511 9.36511 10.6831 7.68683 11.254L4.87605 12.2101C4.76985 12.2463 4.66611 12.2893 4.56546 12.3388C3.27935 12.972 2.75006 14.5279 3.38328 15.814L4.6947 18.4777C5.47772 20.0681 5.47772 21.932 4.6947 23.5224L3.38328 26.1859C3.33373 26.2866 3.29075 26.3905 3.25462 26.4966C2.79294 27.8538 3.51889 29.3281 4.87605 29.7899L7.68683 30.746C9.36511 31.317 10.6831 32.635 11.254 34.3132L12.2101 37.124C12.2463 37.2301 12.2893 37.334 12.3388 37.4345C12.972 38.7207 14.5279 39.25 15.814 38.6168L18.4777 37.3053C20.0681 36.5222 21.932 36.5222 23.5224 37.3053L26.1859 38.6168C26.2866 38.6663 26.3905 38.7092 26.4966 38.7454C27.8538 39.207 29.3281 38.481 29.7899 37.124L30.746 34.3132C31.317 32.635 32.635 31.317 34.3132 30.746L37.124 29.7899C37.2301 29.7538 37.334 29.7108 37.4345 29.6612C38.7207 29.0281 39.25 27.4721 38.6168 26.1859L37.3053 23.5224C36.5222 21.932 36.5222 20.0681 37.3053 18.4777L38.6168 15.814C38.6663 15.7134 38.7092 15.6096 38.7454 15.5034C39.207 14.1463 38.481 12.6718 37.124 12.2101L34.3132 11.254C32.635 10.6831 31.317 9.36511 30.746 7.68683L29.7899 4.87605L29.7306 4.71867L29.6612 4.56546L29.532 4.33329C28.8345 3.21774 27.3918 2.78964 26.1859 3.38328L23.5224 4.6947C21.932 5.47772 20.0681 5.47772 18.4777 4.6947L15.814 3.38328C15.7134 3.33373 15.6096 3.29075 15.5034 3.25462C14.1463 2.79294 12.6718 3.51889 12.2101 4.87605ZM16.9516 25.9606L28.2049 14.7075C28.8132 14.0993 29.7991 14.0993 30.4073 14.7075C30.9603 15.2604 31.0105 16.1256 30.5581 16.7353L30.4073 16.9099L17.9482 29.369C17.3547 29.9627 16.4112 29.9716 15.8065 29.427L15.6505 29.2648L10.4592 23.0352C9.9086 22.3745 9.99787 21.3925 10.6586 20.8418C11.2593 20.3414 12.1255 20.3696 12.6918 20.8752L12.8521 21.0414L16.9516 25.9606L28.2049 14.7075L16.9516 25.9606Z" fill="#212121"/>
</svg>
